<svg width="23" height="22" viewBox="0 0 23 22" fill="none" xmlns="http://www.w3.org/2000/svg">
<g id="bar-code 1">
<path id="Vector" d="M1.67179 19.0588V14.647H3.44615V17.2941H6.10769V19.0588H1.67179ZM16.7539 19.0588V17.2941H19.4154V14.647H21.1898V19.0588H16.7539ZM4.33333 16.4117V5.82351H6.10769V16.4117H4.33333ZM6.99487 16.4117V5.82351H7.88205V16.4117H6.99487ZM9.65641 16.4117V5.82351H11.4308V16.4117H9.65641ZM12.318 16.4117V5.82351H14.9795V16.4117H12.318ZM15.8667 16.4117V5.82351H16.7539V16.4117H15.8667ZM17.641 16.4117V5.82351H18.5282V16.4117H17.641ZM1.67179 7.58822V3.17645H6.10769V4.94116H3.44615V7.58822H1.67179ZM19.4154 7.58822V4.94116H16.7539V3.17645H21.1898V7.58822H19.4154Z" fill="#40CFFC"/>
</g>
</svg>
