<svg width="131" height="98" viewBox="0 0 131 98" fill="none" xmlns="http://www.w3.org/2000/svg">
<g id="barcode 1">
<g id="Group">
<path id="Vector" d="M5.37305 25.2656V32.5391H7.03613H8.69922L8.75039 26.4523L8.82715 20.3848L16.9635 20.3273L25.0742 20.2891V19.1406V17.9922H15.2236H5.37305V25.2656Z" fill="white"/>
<path id="Vector_2" d="M105.926 19.1406V20.2891L114.062 20.3273L122.173 20.3848L122.25 26.4523L122.301 32.5391H123.964H125.627V25.2656V17.9922H115.776H105.926V19.1406Z" fill="white"/>
<path id="Vector_3" d="M17.6543 38.4727V51.4883H18.2939H18.9336V38.4727V25.457H18.2939H17.6543V38.4727Z" fill="white"/>
<path id="Vector_4" d="M22.2598 38.4727V51.4883H25.5859H28.9121V38.4727V25.457H25.5859H22.2598V38.4727Z" fill="white"/>
<path id="Vector_5" d="M32.2383 38.4727V51.4883H34.4131H36.5879V38.4727V25.457H34.4131H32.2383V38.4727Z" fill="white"/>
<path id="Vector_6" d="M39.9141 38.4727V51.4883H41.3213H42.7285V38.4727V25.457H41.3213H39.9141V38.4727Z" fill="white"/>
<path id="Vector_7" d="M46.0547 38.4727V51.4883H47.334H48.6133V38.4727V25.457H47.334H46.0547V38.4727Z" fill="white"/>
<path id="Vector_8" d="M51.9395 38.4727V51.4883H52.5791H53.2188V38.4727V25.457H52.5791H51.9395V38.4727Z" fill="white"/>
<path id="Vector_9" d="M56.5449 38.4727V51.4883H58.7197H60.8945V38.4727V25.457H58.7197H56.5449V38.4727Z" fill="white"/>
<path id="Vector_10" d="M63.709 38.4727V51.4883H64.9883H66.2676V38.4727V25.457H64.9883H63.709V38.4727Z" fill="white"/>
<path id="Vector_11" d="M69.3379 38.4727V51.4883H71.5127H73.6875V38.4727V25.457H71.5127H69.3379V38.4727Z" fill="white"/>
<path id="Vector_12" d="M77.0137 38.4727V51.4883H77.6533H78.293V38.4727V25.457H77.6533H77.0137V38.4727Z" fill="white"/>
<path id="Vector_13" d="M81.6191 38.4727V51.4883H82.8984H84.1777V38.4727V25.457H82.8984H81.6191V38.4727Z" fill="white"/>
<path id="Vector_14" d="M87.5039 38.4727V51.4883H88.7832H90.0625V38.4727V25.457H88.7832H87.5039V38.4727Z" fill="white"/>
<path id="Vector_15" d="M93.3887 38.4727V51.4883H95.5635H97.7383V38.4727V25.457H95.5635H93.3887V38.4727Z" fill="white"/>
<path id="Vector_16" d="M101.064 38.4727V51.4883H104.391H107.717V38.4727V25.457H104.391H101.064V38.4727Z" fill="white"/>
<path id="Vector_17" d="M111.043 38.4727V51.4883H111.683H112.322V38.4727V25.457H111.683H111.043V38.4727Z" fill="white"/>
<path id="Vector_18" d="M11.8718 54.2637C11.488 54.7039 11.488 54.7805 11.8718 55.2207L12.2812 55.6992H65.065C105.772 55.6992 117.926 55.6418 118.156 55.4695C118.642 55.1059 118.54 54.2063 117.977 53.9766C117.644 53.8426 100.655 53.7852 64.8859 53.7852H12.2812L11.8718 54.2637Z" fill="white"/>
<path id="Vector_19" d="M17.6543 65.2695V72.543H18.2939H18.9336V65.2695V57.9961H18.2939H17.6543V65.2695Z" fill="white"/>
<path id="Vector_20" d="M22.2598 65.2695V72.543H25.5859H28.9121V65.2695V57.9961H25.5859H22.2598V65.2695Z" fill="white"/>
<path id="Vector_21" d="M32.2383 65.2695V72.543H34.4131H36.5879V65.2695V57.9961H34.4131H32.2383V65.2695Z" fill="white"/>
<path id="Vector_22" d="M39.9141 65.2695V72.543H41.3213H42.7285V65.2695V57.9961H41.3213H39.9141V65.2695Z" fill="white"/>
<path id="Vector_23" d="M46.0547 65.2695V72.543H47.334H48.6133V65.2695V57.9961H47.334H46.0547V65.2695Z" fill="white"/>
<path id="Vector_24" d="M51.9395 65.2695V72.543H52.5791H53.2188V65.2695V57.9961H52.5791H51.9395V65.2695Z" fill="white"/>
<path id="Vector_25" d="M56.5449 65.2695V72.543H58.7197H60.8945V65.2695V57.9961H58.7197H56.5449V65.2695Z" fill="white"/>
<path id="Vector_26" d="M63.709 65.3652V72.7344H64.9883H66.2676V65.3652V57.9961H64.9883H63.709V65.3652Z" fill="white"/>
<path id="Vector_27" d="M69.3379 65.2695V72.543H71.5127H73.6875V65.2695V57.9961H71.5127H69.3379V65.2695Z" fill="white"/>
<path id="Vector_28" d="M77.0137 65.2695V72.543H77.6533H78.293V65.2695V57.9961H77.6533H77.0137V65.2695Z" fill="white"/>
<path id="Vector_29" d="M81.6191 65.2695V72.543H82.8984H84.1777V65.2695V57.9961H82.8984H81.6191V65.2695Z" fill="white"/>
<path id="Vector_30" d="M87.5039 65.2695V72.543H88.7832H90.0625V65.2695V57.9961H88.7832H87.5039V65.2695Z" fill="white"/>
<path id="Vector_31" d="M93.3887 65.2695V72.543H95.5635H97.7383V65.2695V57.9961H95.5635H93.3887V65.2695Z" fill="white"/>
<path id="Vector_32" d="M101.064 65.2695V72.543H104.391H107.717V65.2695V57.9961H104.391H101.064V65.2695Z" fill="white"/>
<path id="Vector_33" d="M111.043 65.2695V72.543H111.683H112.322V65.2695V57.9961H111.683H111.043V65.2695Z" fill="white"/>
<path id="Vector_34" d="M5.37305 72.7344V80.0078H15.2236H25.0742V78.8594V77.7109L16.9635 77.6727L8.82715 77.6152L8.75039 71.5285L8.69922 65.4609H7.03613H5.37305V72.7344Z" fill="white"/>
<path id="Vector_35" d="M122.25 71.5285L122.173 77.6152L114.062 77.6727L105.926 77.7109V78.8594V80.0078H115.776H125.627V72.7344V65.4609H123.964H122.301L122.25 71.5285Z" fill="white"/>
</g>
</g>
</svg>
