<svg width="100" height="100" viewBox="0 0 100 100" fill="none" xmlns="http://www.w3.org/2000/svg">
<g id="image 2">
<g id="Group">
<path id="Vector" d="M26.582 11.1328C13.9648 17.2266 3.53516 22.3828 3.37891 22.5781C3.16406 22.8711 3.125 27.7734 3.125 50.0195C3.125 75.5273 3.14453 77.1289 3.47656 77.5C3.84766 77.9492 49.4727 100 50.0195 100C50.5469 100 96.1523 77.9492 96.5234 77.5C96.8555 77.1289 96.875 75.5273 96.875 50C96.875 24.4726 96.8555 22.8711 96.543 22.5C96.0938 21.9922 50.5078 -7.62939e-06 49.9414 0.0195236C49.707 0.0195236 39.1992 5.01952 26.582 11.1328ZM71.2305 13.3398C82.6172 18.8476 91.9336 23.3789 91.8945 23.3984C91.8555 23.4375 89.1406 24.7851 85.8398 26.3672L79.8633 29.2773L76.7969 27.7539C75.1172 26.9336 65.7031 22.3828 55.918 17.6562C46.1133 12.9492 38.0859 9.02343 38.0859 8.96484C38.0859 8.73046 49.9023 3.14452 50.1953 3.24218C50.3516 3.30077 59.8242 7.83202 71.2305 13.3398ZM55.5859 20.7422C67.0117 26.25 76.3672 30.8008 76.3672 30.8594C76.3672 30.957 68.1445 34.9609 67.9297 34.9609C67.832 34.9609 58.0664 30.2734 34.3164 18.7891L25.957 14.7461L26.6016 14.4531C26.9531 14.2969 28.8281 13.3984 30.7422 12.4609C32.6758 11.5039 34.375 10.7422 34.5312 10.7422C34.6875 10.7422 44.1602 15.2539 55.5859 20.7422ZM44.6289 27.0117L66.5039 37.5976L66.5625 46.6797C66.6016 55.6641 66.6016 55.7422 67.0312 56.1914C67.2656 56.4453 67.6562 56.6406 67.9297 56.6406C68.4766 56.6406 79.7656 51.25 80.1172 50.8203C80.3125 50.6055 80.3906 48.3008 80.4688 41.3477L80.5664 32.168L87.1875 28.9844C90.8398 27.2266 93.8477 25.7812 93.8867 25.7812C93.9258 25.7812 93.9453 37.0117 93.9453 50.7422V75.7031L72.9297 85.8398C61.3672 91.4258 51.8359 96.0156 51.7383 96.0547C51.6406 96.0937 51.5625 85.625 51.5625 71.1523V46.1719L56.1914 43.9453C58.75 42.7148 61.0938 41.5625 61.4258 41.4062C62.2461 40.9961 62.5977 40.1953 62.2656 39.5117C62.1289 39.2187 61.7578 38.8476 61.4648 38.7109C60.9375 38.457 60.7227 38.5351 56.9727 40.332C54.8047 41.3867 52.3438 42.5391 51.5039 42.9297L50 43.6328L48.1836 42.793C47.207 42.3242 46.1523 41.8555 45.8594 41.7383C45.0977 41.4258 44.3164 41.7578 44.0234 42.5C43.6133 43.4961 43.9844 43.9062 46.3281 45.1172L48.4375 46.1914V71.1523C48.4375 84.8828 48.3594 96.0937 48.2812 96.0547C48.1836 96.0352 38.6523 91.4258 27.0898 85.8398L6.05469 75.6836V50.7422C6.05469 37.0117 6.09375 25.7812 6.13281 25.7812C6.17188 25.7812 13.4766 29.2969 22.3828 33.5937C31.875 38.1836 38.7695 41.4062 39.1016 41.4062C39.3945 41.4062 39.8242 41.2305 40.0391 41.0156C40.5273 40.5273 40.5469 39.4336 40.0977 39.0039C39.9023 38.8476 35.7031 36.7578 30.7617 34.375C15 26.7773 14.0234 26.3086 10.9961 24.8047L8.02734 23.3398L15.1953 19.8828C19.1406 17.9883 22.4609 16.4258 22.5586 16.4258C22.6758 16.4258 32.5977 21.1914 44.6289 27.0117ZM77.5391 41.3672V48.9648L73.6523 50.8398C71.5039 51.8945 69.707 52.7344 69.6484 52.7344C69.5898 52.7344 69.5312 49.3164 69.5312 45.1172V37.5195L73.3008 35.6641C75.3516 34.6484 77.168 33.8086 77.3047 33.8086C77.4805 33.7891 77.5391 35.4297 77.5391 41.3672Z" fill="white"/>
<path id="Vector_2" d="M9.78515 60.2734C9.3164 60.8594 9.25781 61.4844 9.6289 61.9727C9.96094 62.4414 23.0469 68.75 23.6523 68.75C24.8633 68.75 25.5273 67.2266 24.6875 66.4063C24.1016 65.8203 11.3867 59.7656 10.7422 59.7656C10.3711 59.7656 10.0586 59.9414 9.78515 60.2734Z" fill="white"/>
<path id="Vector_3" d="M10.1562 66.8555C9.47266 67.207 9.21875 68.0469 9.57031 68.7109C9.96094 69.3945 16.543 72.7148 17.5586 72.7148C18.7891 72.7539 19.4141 71.2109 18.5156 70.3711C18.0664 69.9414 11.7969 66.875 11.0547 66.6992C10.8203 66.6406 10.4297 66.7187 10.1562 66.8555Z" fill="white"/>
</g>
</g>
</svg>
