<svg xmlns="http://www.w3.org/2000/svg" width="101" height="69" viewBox="0 0 101 69" fill="none">
  <path d="M22.0938 2.87499H41.0312V14.03C41.0312 14.884 40.6588 15.703 39.9959 16.3069C39.3329 16.9107 38.4338 17.25 37.4963 17.25H25.6287C24.6912 17.25 23.7921 16.9107 23.1291 16.3069C22.4662 15.703 22.0938 14.884 22.0938 14.03V2.87499Z" fill="white"/>
  <path d="M99.1378 37.375L94.2772 32.9475L88.9431 18.3137C88.525 17.1663 87.7205 16.1681 86.644 15.461C85.5674 14.7539 84.2735 14.3739 82.9463 14.375H63.125V8.625C63.125 6.33751 62.1274 4.1437 60.3517 2.5262C58.5759 0.908703 56.1675 0 53.6562 0H9.46875C6.95748 0 4.54907 0.908703 2.77333 2.5262C0.997598 4.1437 0 6.33751 0 8.625L0 51.75C0 54.0375 0.997598 56.2313 2.77333 57.8488C4.54907 59.4663 6.95748 60.375 9.46875 60.375H13.0669C13.8351 63.0851 15.662 65.447 18.2053 67.018C20.7485 68.5889 23.8334 69.261 26.8818 68.9083C29.9301 68.5556 32.7326 67.2023 34.764 65.1021C36.7953 63.0019 37.916 60.299 37.916 57.5C37.916 54.701 36.7953 51.998 34.764 49.8978C32.7326 47.7976 29.9301 46.4443 26.8818 46.0916C23.8334 45.739 20.7485 46.4111 18.2053 47.982C15.662 49.5529 13.8351 51.9148 13.0669 54.625H9.46875C8.63166 54.625 7.82886 54.3221 7.23694 53.7829C6.64503 53.2437 6.3125 52.5125 6.3125 51.75V8.625C6.3125 7.8625 6.64503 7.13123 7.23694 6.59207C7.82886 6.0529 8.63166 5.75 9.46875 5.75H53.6562C54.4933 5.75 55.2961 6.0529 55.8881 6.59207C56.48 7.13123 56.8125 7.8625 56.8125 8.625V54.625H47.3438C46.5067 54.625 45.7039 54.9279 45.1119 55.467C44.52 56.0062 44.1875 56.7375 44.1875 57.5C44.1875 58.2625 44.52 58.9937 45.1119 59.5329C45.7039 60.0721 46.5067 60.375 47.3438 60.375H66.7231C67.45 62.8112 69.0367 64.9618 71.2384 66.4951C73.4402 68.0284 76.1347 68.8591 78.9062 68.8591C81.6778 68.8591 84.3723 68.0284 86.5741 66.4951C88.7758 64.9618 90.3625 62.8112 91.0894 60.375H94.6875C96.3617 60.375 97.9673 59.7692 99.1511 58.6908C100.335 57.6125 101 56.15 101 54.625V41.4287C100.993 39.9062 100.323 38.4484 99.1378 37.375ZM25.25 51.75C26.4985 51.75 27.719 52.0872 28.757 52.719C29.7951 53.3508 30.6042 54.2489 31.082 55.2995C31.5598 56.3502 31.6848 57.5064 31.4412 58.6217C31.1976 59.7371 30.5964 60.7617 29.7136 61.5658C28.8308 62.37 27.706 62.9176 26.4815 63.1395C25.257 63.3614 23.9878 63.2475 22.8343 62.8123C21.6809 62.3771 20.695 61.6401 20.0013 60.6945C19.3077 59.7489 18.9375 58.6372 18.9375 57.5C18.9375 55.975 19.6026 54.5124 20.7864 53.4341C21.9702 52.3558 23.5758 51.75 25.25 51.75ZM87.1441 31.625H75.75V20.125H82.9463L87.1441 31.625ZM78.9062 63.25C77.6578 63.25 76.4373 62.9127 75.3992 62.2809C74.3611 61.6491 73.552 60.7511 73.0743 59.7004C72.5965 58.6497 72.4715 57.4936 72.715 56.3782C72.9586 55.2628 73.5598 54.2383 74.4426 53.4341C75.3255 52.63 76.4502 52.0823 77.6747 51.8605C78.8992 51.6386 80.1685 51.7525 81.3219 52.1877C82.4754 52.6229 83.4613 53.3599 84.1549 54.3054C84.8485 55.251 85.2188 56.3627 85.2188 57.5C85.2188 59.025 84.5537 60.4875 83.3699 61.5658C82.186 62.6442 80.5804 63.25 78.9062 63.25ZM94.6875 54.625H91.0894C90.3625 52.1888 88.7758 50.0382 86.5741 48.5049C84.3723 46.9716 81.6778 46.1409 78.9062 46.1409C76.1347 46.1409 73.4402 46.9716 71.2384 48.5049C69.0367 50.0382 67.45 52.1888 66.7231 54.625H63.125V20.125H69.4375V34.5C69.4375 35.2625 69.77 35.9938 70.3619 36.5329C70.9538 37.0721 71.7567 37.375 72.5938 37.375H90.2372L94.6875 41.4287V54.625Z" fill="#3696FF"/>
</svg>