<svg width="167" height="139" viewBox="0 0 167 139" fill="none" xmlns="http://www.w3.org/2000/svg">
<path d="M148.634 69.0939L83.5375 15.1157" stroke="white" stroke-width="8" stroke-miterlimit="10" stroke-linecap="round" stroke-linejoin="round"/>
<path d="M18.3654 69.0939L83.4641 15.1157" stroke="white" stroke-width="8" stroke-miterlimit="10" stroke-linecap="round" stroke-linejoin="round"/>
<path d="M105.044 28.1763V13.5359C105.044 11.4585 107.075 9.77344 109.573 9.77344H118.999C121.499 9.77344 123.525 11.4585 123.525 13.5359V43.1858" stroke="white" stroke-width="8" stroke-miterlimit="10" stroke-linecap="round" stroke-linejoin="round"/>
<path d="M134.15 63.2863V125.363C134.15 127.498 132.067 129.226 129.507 129.226H37.4236C34.8593 129.226 32.7816 127.498 32.7816 125.363V63.2863" stroke="white" stroke-width="8" stroke-miterlimit="10" stroke-linecap="round" stroke-linejoin="round"/>
<path d="M104.276 92.8229C103.809 92.4107 103.192 92.1554 102.532 92.1013C101.873 92.0473 101.213 92.1977 100.667 92.5267L98.4604 90.5869C98.3731 90.5101 98.2695 90.4493 98.1554 90.4078C98.0414 90.3663 97.9192 90.345 97.7959 90.3451C97.6725 90.3452 97.5503 90.3666 97.4364 90.4082C97.3224 90.4498 97.2189 90.5108 97.1317 90.5876C97.0445 90.6644 96.9754 90.7556 96.9282 90.8559C96.8811 90.9562 96.8569 91.0637 96.857 91.1723C96.857 91.2809 96.8814 91.3884 96.9287 91.4886C96.976 91.5889 97.0453 91.68 97.1325 91.7567L99.3035 93.664L97.1645 95.5476L93.2804 92.1299C96.1742 89.8555 98.4892 87.0689 100.074 83.9524C101.659 80.836 102.477 77.4602 102.476 74.0461C102.476 60.652 90.0913 49.7605 74.8761 49.7605C59.6609 49.7605 47.2764 60.6579 47.2764 74.0461C47.2699 79.1361 49.0823 84.099 52.4572 88.2329C55.8322 92.3669 60.5988 95.4624 66.0829 97.0817C66.2001 97.1172 66.3241 97.1319 66.4477 97.125C66.5714 97.118 66.6922 97.0897 66.8034 97.0415C66.9145 96.9933 67.0137 96.9262 67.0952 96.8441C67.1767 96.762 67.239 96.6665 67.2784 96.5632C67.3178 96.4598 67.3336 96.3506 67.3249 96.2419C67.3161 96.1331 67.283 96.027 67.2274 95.9295C67.1718 95.8321 67.0948 95.7453 67.0009 95.6742C66.907 95.603 66.7981 95.549 66.6803 95.515C61.5666 94.0073 57.1212 91.1226 53.9735 87.2691C50.8259 83.4156 49.1353 78.7887 49.1411 74.0431C49.1411 61.5612 60.6824 51.4057 74.8677 51.4057C89.0529 51.4057 100.596 61.5612 100.596 74.0431C100.596 86.525 89.0546 96.6849 74.8677 96.6849C74.3729 96.6849 73.8748 96.6716 73.3783 96.6464L74.176 95.4617C74.2915 95.2734 74.3196 95.053 74.2544 94.8468C74.1892 94.6406 74.0358 94.4646 73.8264 94.3558C73.617 94.247 73.3678 94.2138 73.1311 94.2632C72.8944 94.3126 72.6887 94.4407 72.557 94.6206L69.7752 98.7669C69.2381 99.5454 68.4828 100.189 67.5817 100.637C66.6805 101.085 65.6638 101.322 64.6289 101.324H52.6163C52.3739 101.333 52.1448 101.424 51.9769 101.579C51.809 101.733 51.7153 101.938 51.7153 102.151C51.7153 102.365 51.809 102.57 51.9769 102.724C52.1448 102.878 52.3739 102.969 52.6163 102.978H64.6289C65.9892 102.975 67.3255 102.663 68.5094 102.074C69.6933 101.484 70.685 100.637 71.3891 99.6125L72.3147 98.2353C73.1562 98.3034 74.0161 98.339 74.8677 98.339C81.0186 98.345 86.9938 96.5346 91.8364 93.1976L95.8754 96.7515C95.5026 97.2324 95.3322 97.8127 95.3937 98.3923C95.4551 98.9719 95.7445 99.5145 96.212 99.9264L114.44 115.967C115.51 116.909 116.961 117.439 118.476 117.44C119.99 117.441 121.442 116.912 122.513 115.97C123.585 115.029 124.187 113.751 124.188 112.419C124.188 111.087 123.588 109.809 122.518 108.866L104.276 92.8229ZM121.18 114.797C120.461 115.427 119.488 115.781 118.474 115.781C117.459 115.781 116.486 115.427 115.767 114.797L97.5348 98.7536C97.3553 98.5951 97.2546 98.3805 97.2546 98.1568C97.2546 97.9331 97.3553 97.7185 97.5348 97.5601L101.591 93.9913C101.77 93.833 102.014 93.7441 102.269 93.7441C102.523 93.7441 102.767 93.833 102.947 93.9913L121.18 110.035C121.535 110.347 121.817 110.718 122.009 111.127C122.202 111.536 122.301 111.973 122.301 112.416C122.301 112.858 122.202 113.296 122.009 113.704C121.817 114.113 121.535 114.484 121.18 114.797Z" fill="white"/>
<path d="M61.221 60.3129C61.1133 60.3958 61.0073 60.4802 60.9012 60.5646C60.7173 60.7125 60.6077 60.9186 60.5965 61.1376C60.5853 61.3565 60.6734 61.5705 60.8415 61.7323C61.0095 61.8941 61.2437 61.9905 61.4926 62.0004C61.7415 62.0102 61.9846 61.9327 62.1685 61.7848L62.4596 61.5568C62.6471 61.4123 62.7616 61.2081 62.778 60.9893C62.7944 60.7705 62.7114 60.5548 62.5471 60.3899C62.3829 60.2249 62.1509 60.1242 61.9022 60.1097C61.6535 60.0953 61.4084 60.1684 61.221 60.3129Z" fill="white"/>
<path d="M58.1429 64.6946C57.9266 64.5859 57.6701 64.5571 57.4297 64.6146C57.1893 64.6721 56.9846 64.8111 56.8606 65.0012C54.4167 68.7718 53.5823 73.186 54.5075 77.4496C55.4327 81.7133 58.0567 85.5464 61.9074 88.2595C65.7581 90.9725 70.5827 92.3874 75.5133 92.2494C80.4438 92.1114 85.1565 90.4297 88.8036 87.5068C92.4506 84.584 94.7925 80.6118 95.4079 76.3051C96.0233 71.9983 94.8719 67.6397 92.1607 64.0134C89.4495 60.387 85.3566 57.7311 80.6184 56.5234C75.8801 55.3157 70.8076 55.6355 66.3134 57.4253C66.2011 57.4701 66.0998 57.534 66.0155 57.6132C65.9312 57.6925 65.8654 57.7856 65.822 57.8872C65.7785 57.9888 65.7582 58.097 65.7623 58.2055C65.7664 58.314 65.7947 58.4207 65.8456 58.5196C65.8965 58.6185 65.9691 58.7076 66.0592 58.7818C66.1493 58.856 66.2551 58.9139 66.3705 58.9521C66.486 58.9903 66.6089 59.0082 66.7323 59.0046C66.8556 59.001 66.9769 58.9761 67.0893 58.9313C69.5311 57.9518 72.1841 57.4467 74.8677 57.4505C79.0123 57.4504 83.0414 58.6525 86.3314 60.8706C89.6213 63.0886 91.9887 66.1991 93.0671 69.7204C94.1455 73.2418 93.8748 76.9777 92.2968 80.35C90.7189 83.7223 87.9217 86.543 84.3382 88.3754C80.7547 90.2078 76.5847 90.9498 72.4736 90.4866C68.3626 90.0234 64.5396 88.3807 61.5965 85.8129C58.6534 83.2451 56.7542 79.8953 56.1928 76.2819C55.6315 72.6686 56.4393 68.9932 58.4913 65.8245C58.5527 65.7302 58.5925 65.6262 58.6082 65.5183C58.624 65.4105 58.6154 65.301 58.5831 65.1961C58.5507 65.0912 58.4952 64.9929 58.4197 64.9069C58.3442 64.8208 58.2501 64.7487 58.1429 64.6946Z" fill="white"/>
<path d="M52.2814 112.442H62.9325C63.1749 112.433 63.4039 112.342 63.5718 112.188C63.7397 112.034 63.8335 111.829 63.8335 111.615C63.8335 111.402 63.7397 111.197 63.5718 111.042C63.4039 110.888 63.1749 110.797 62.9325 110.788H52.2814C52.039 110.797 51.8099 110.888 51.642 111.042C51.4741 111.197 51.3804 111.402 51.3804 111.615C51.3804 111.829 51.4741 112.034 51.642 112.188C51.8099 112.342 52.039 112.433 52.2814 112.442Z" fill="white"/>
<path d="M66.236 107.554C66.4851 107.554 66.7239 107.467 66.9001 107.312C67.0762 107.157 67.1751 106.947 67.1751 106.728C67.1751 106.509 67.0762 106.299 66.9001 106.144C66.7239 105.989 66.4851 105.902 66.236 105.902H60.982C60.7329 105.902 60.4941 105.989 60.318 106.144C60.1419 106.299 60.0429 106.509 60.0429 106.728C60.0429 106.947 60.1419 107.157 60.318 107.312C60.4941 107.467 60.7329 107.554 60.982 107.554H66.236Z" fill="white"/>
<path d="M52.2814 107.554H57.6162C57.8652 107.554 58.1041 107.467 58.2802 107.312C58.4563 107.157 58.5552 106.947 58.5552 106.728C58.5552 106.509 58.4563 106.299 58.2802 106.144C58.1041 105.989 57.8652 105.902 57.6162 105.902H52.2814C52.0323 105.902 51.7935 105.989 51.6173 106.144C51.4412 106.299 51.3423 106.509 51.3423 106.728C51.3423 106.947 51.4412 107.157 51.6173 107.312C51.7935 107.467 52.0323 107.554 52.2814 107.554Z" fill="white"/>
<path d="M85.7208 83.5485C85.9698 83.5485 86.2087 83.4614 86.3848 83.3065C86.5609 83.1515 86.6598 82.9413 86.6598 82.7222V64.7879C86.6598 64.5688 86.5609 64.3586 86.3848 64.2037C86.2087 64.0487 85.9698 63.9616 85.7208 63.9616H81.3452C81.0961 63.9616 80.8573 64.0487 80.6812 64.2037C80.5051 64.3586 80.4061 64.5688 80.4061 64.7879V82.7222C80.4061 82.9413 80.5051 83.1515 80.6812 83.3065C80.8573 83.4614 81.0961 83.5485 81.3452 83.5485H85.7208ZM82.2775 65.6128H84.7817V81.9018H82.2775V65.6128Z" fill="white"/>
<path d="M76.7273 83.5485C76.9763 83.5485 77.2152 83.4614 77.3913 83.3065C77.5674 83.1515 77.6663 82.9413 77.6663 82.7222V70.267C77.6666 70.1584 77.6424 70.0507 77.5953 69.9503C77.5483 69.8499 77.4791 69.7586 77.3919 69.6818C77.3047 69.6049 77.2011 69.5439 77.087 69.5023C76.973 69.4606 76.8507 69.4392 76.7273 69.4392H72.3517C72.2283 69.4392 72.106 69.4606 71.992 69.5023C71.8779 69.5439 71.7743 69.6049 71.6871 69.6818C71.5999 69.7586 71.5308 69.8499 71.4837 69.9503C71.4366 70.0507 71.4124 70.1584 71.4127 70.267V82.7237C71.4127 82.9428 71.5116 83.153 71.6877 83.308C71.8638 83.4629 72.1027 83.55 72.3517 83.55L76.7273 83.5485ZM73.2857 71.0918H75.7916V81.9018H73.2857V71.0918Z" fill="white"/>
<path d="M62.4125 82.7222C62.4125 82.9414 62.5114 83.1515 62.6875 83.3065C62.8636 83.4614 63.1025 83.5485 63.3515 83.5485H67.7271C67.9762 83.5485 68.215 83.4614 68.3911 83.3065C68.5672 83.1515 68.6662 82.9414 68.6662 82.7222V75.0619C68.6662 74.8428 68.5672 74.6326 68.3911 74.4776C68.215 74.3227 67.9762 74.2356 67.7271 74.2356H63.3515C63.1025 74.2356 62.8636 74.3227 62.6875 74.4776C62.5114 74.6326 62.4125 74.8428 62.4125 75.0619V82.7222ZM64.2923 75.8941H66.7948V81.9018H64.2923V75.8941Z" fill="white"/>
</svg>
