<svg xmlns="http://www.w3.org/2000/svg" width="20" height="20" viewBox="0 0 20 20" fill="none">
    <path d="M5.72753 14.2742C4.19003 13.1825 2.97336 11.7625 2.28586 10.8659C2.09362 10.6183 1.98926 10.3138 1.98926 10.0004C1.98926 9.68703 2.09362 9.38254 2.28586 9.13502C3.53003 7.51085 6.51503 4.16669 10 4.16669C11.5634 4.16669 13.025 4.83919 14.275 5.72835" stroke="#C4C4C4" stroke-width="2" stroke-linecap="round" stroke-linejoin="round"/>
    <path d="M11.775 8.23918C11.5436 8.0039 11.2679 7.81677 10.9638 7.68858C10.6597 7.56039 10.3332 7.49368 10.0032 7.4923C9.6732 7.49092 9.34617 7.55489 9.041 7.68053C8.73584 7.80616 8.45856 7.99097 8.22518 8.2243C7.99179 8.45763 7.80691 8.73486 7.68121 9.04C7.5555 9.34514 7.49145 9.67215 7.49276 10.0022C7.49406 10.3322 7.56069 10.6587 7.68881 10.9628C7.81693 11.2669 8.00399 11.5427 8.23921 11.7742" stroke="#C4C4C4" stroke-width="2" stroke-linecap="round" stroke-linejoin="round"/>
    <path d="M3.33337 16.6667L16.6667 3.33334" stroke="#C4C4C4" stroke-width="2" stroke-linecap="round" stroke-linejoin="round"/>
    <path d="M8.33337 15.5867C8.87438 15.7477 9.43558 15.8308 10 15.8333C13.485 15.8333 16.47 12.4892 17.7142 10.865C17.9064 10.6173 18.0106 10.3126 18.0105 9.99902C18.0103 9.68547 17.9058 9.38089 17.7134 9.13333C17.2761 8.56291 16.807 8.0176 16.3084 7.5" stroke="#C4C4C4" stroke-width="2" stroke-linecap="round" stroke-linejoin="round"/>
  </svg>