<svg width="28" height="25" viewBox="0 0 28 25" fill="none" xmlns="http://www.w3.org/2000/svg">
<path d="M18 21C18.8333 21 19.5417 20.7083 20.125 20.125C20.7083 19.5417 21 18.8333 21 18H23V7C23 6.45 22.8042 5.97917 22.4125 5.5875C22.0208 5.19583 21.55 5 21 5H7V9H4L1 13V18H3C3 18.8333 3.29167 19.5417 3.875 20.125C4.45833 20.7083 5.16667 21 6 21C6.83333 21 7.54167 20.7083 8.125 20.125C8.70833 19.5417 9 18.8333 9 18H15C15 18.8333 15.2917 19.5417 15.875 20.125C16.4583 20.7083 17.1667 21 18 21ZM18 19C17.7167 19 17.4792 18.9042 17.2875 18.7125C17.0958 18.5208 17 18.2833 17 18C17 17.7167 17.0958 17.4792 17.2875 17.2875C17.4792 17.0958 17.7167 17 18 17C18.2833 17 18.5208 17.0958 18.7125 17.2875C18.9042 17.4792 19 17.7167 19 18C19 18.2833 18.9042 18.5208 18.7125 18.7125C18.5208 18.9042 18.2833 19 18 19ZM21 16H20.2C19.9167 15.7 19.5917 15.4583 19.225 15.275C18.8583 15.0917 18.45 15 18 15C17.55 15 17.1417 15.0917 16.775 15.275C16.4083 15.4583 16.0833 15.7 15.8 16H9V7H21V16ZM6 19C5.71667 19 5.47917 18.9042 5.2875 18.7125C5.09583 18.5208 5 18.2833 5 18C5 17.7167 5.09583 17.4792 5.2875 17.2875C5.47917 17.0958 5.71667 17 6 17C6.28333 17 6.52083 17.0958 6.7125 17.2875C6.90417 17.4792 7 17.7167 7 18C7 18.2833 6.90417 18.5208 6.7125 18.7125C6.52083 18.9042 6.28333 19 6 19ZM7 14H2.75L5 11H7V14Z" fill="white"/>
<rect x="16" width="12" height="12" rx="6" fill="#40CFFC"/>
<line x1="22" y1="2" x2="22" y2="10" stroke="white" stroke-width="2"/>
<line x1="18" y1="6" x2="26" y2="6" stroke="white" stroke-width="2"/>
</svg>
