<svg width="120" height="120" viewBox="0 0 120 120" fill="none" xmlns="http://www.w3.org/2000/svg">
<path d="M16.875 2.17968C15.7266 2.55468 13.7578 4.57031 13.4062 5.76562C13.0078 7.14843 13.0078 45.3516 13.4062 46.7344C13.7812 48.0234 15.7266 49.9687 17.0156 50.3437C17.5781 50.5078 19.3594 50.625 21.1875 50.625H24.375V56.6016V62.6016L24.9609 63.1641C25.3359 63.5391 25.7812 63.75 26.2969 63.75C26.9766 63.75 27.7031 63.0937 33.6328 57.1875L40.1953 50.625H50.5312C62.4375 50.625 62.3672 50.625 64.0547 48.75C64.6172 48.1406 65.2031 47.2031 65.3438 46.6875C65.7422 45.375 65.7422 7.125 65.3438 5.8125C65.2031 5.29687 64.6172 4.35937 64.0547 3.75C62.2734 1.75781 63.7734 1.875 39.2812 1.89843C24.2578 1.92187 17.4375 1.99218 16.875 2.17968ZM61.2891 6.21093L61.875 6.77343V26.25V45.7266L61.2891 46.2891L60.7266 46.875H49.6406H38.5781L33.3516 52.0781L28.125 57.2812V52.6641C28.125 46.4531 28.5469 46.875 22.5 46.875C18.0703 46.875 18.0234 46.875 17.4609 46.2891L16.875 45.7266V26.25V6.77343L17.4609 6.21093L18.0234 5.625H39.375H60.7266L61.2891 6.21093Z" fill="white"/>
<path d="M35.4141 9.77344C34.4766 10.2422 33.7969 11.25 33.6094 12.4922C33.4688 13.2656 33.3047 13.4531 32.0156 14.1328C31.2422 14.5312 30.5391 14.8594 30.4688 14.8359C27.3047 13.5 26.3203 14.0156 23.7656 18.5156C23.0391 19.7813 22.5 21 22.5 21.3984C22.5 22.4297 23.1797 23.6484 24.0469 24.2109C24.8203 24.7031 24.8438 24.7734 24.8438 26.25C24.8438 27.7266 24.8203 27.7969 24.0469 28.2891C23.1797 28.8516 22.5 30.0703 22.5 31.1016C22.5 31.4766 23.0156 32.6953 23.6953 33.8672C25.125 36.375 25.8516 37.3828 26.6016 37.875C27.3047 38.3438 29.0391 38.3438 29.9062 37.8984C30.5156 37.5703 30.6562 37.5938 31.9688 38.3438C33.2344 39.0234 33.3984 39.2109 33.6328 40.1484C34.2656 42.6797 35.1328 43.125 39.375 43.125C43.6172 43.125 44.4844 42.6797 45.1172 40.1484C45.3516 39.2109 45.5156 39.0234 46.7812 38.3438C48.1172 37.5938 48.2109 37.5703 48.8672 37.9219C49.7578 38.3672 51.4219 38.3438 52.1484 37.875C52.8984 37.3828 53.625 36.375 55.0547 33.8672C55.7344 32.6953 56.25 31.4766 56.25 31.1016C56.25 30.0703 55.5703 28.8516 54.7031 28.2891C53.9297 27.7969 53.9062 27.7266 53.9062 26.25C53.9062 24.7734 53.9297 24.7031 54.7031 24.2109C55.5703 23.6484 56.25 22.4297 56.25 21.3984C56.25 21 55.7109 19.7813 54.9844 18.5156C52.4297 14.0156 51.4453 13.5 48.2812 14.8359C48.2109 14.8594 47.5078 14.5312 46.7344 14.1328C45.4453 13.4531 45.2812 13.2656 45.1406 12.4922C44.9531 11.2266 44.25 10.2188 43.2891 9.77344C42.1172 9.21094 36.5625 9.21094 35.4141 9.77344ZM41.4844 13.8516C41.4844 15.0938 42.3047 16.1016 44.0391 16.9922C44.8828 17.4609 45.9609 18.0234 46.4062 18.2813C47.3672 18.8438 48.4453 18.8906 49.5703 18.4219L50.3906 18.0703L51.3281 19.6406L52.2656 21.2109L51.5625 21.75C50.3672 22.6875 50.1562 23.3672 50.1562 26.25C50.1562 29.1328 50.3672 29.8125 51.5625 30.75L52.2656 31.2891L51.3281 32.8594L50.3906 34.4297L49.5703 34.0781C48.4453 33.6094 47.3672 33.6563 46.4062 34.2188C45.9609 34.4766 44.8594 35.0625 43.9922 35.5078C42.2578 36.4219 41.4844 37.3594 41.4844 38.6016V39.375H39.375H37.2656V38.6484C37.2656 37.4063 36.4453 36.3984 34.7109 35.5078C33.8672 35.0391 32.7891 34.4766 32.3438 34.2188C31.3828 33.6563 30.3047 33.6094 29.1797 34.0781L28.3594 34.4297L27.4219 32.8594L26.4844 31.2891L27.1875 30.75C28.3828 29.8125 28.5938 29.1328 28.5938 26.25C28.5938 23.3672 28.3828 22.6875 27.1875 21.75L26.4844 21.2109L27.4219 19.6406L28.3594 18.0703L29.1797 18.4219C30.3047 18.8906 31.3828 18.8438 32.3438 18.2813C32.7891 18.0234 33.8906 17.4375 34.7578 16.9922C36.4922 16.0781 37.2656 15.1406 37.2656 13.875V13.125H39.375H41.4844V13.8516Z" fill="white"/>
<path d="M37.2422 20.0625C35.0156 20.7422 33.1406 23.1328 32.8828 25.6172C32.4609 29.6719 35.9297 33.1641 39.9609 32.7422C44.1328 32.3203 46.7813 28.3359 45.6094 24.2578C45.2813 23.2031 44.9297 22.6406 43.9922 21.7031C42.1172 19.8516 39.7734 19.2656 37.2422 20.0625ZM41.3438 24.3516C41.9531 24.9844 42.0703 25.2656 42.0703 26.25C42.0703 27.2578 41.9531 27.5156 41.2969 28.1719C40.6406 28.8281 40.3828 28.9453 39.375 28.9453C38.3672 28.9453 38.1094 28.8281 37.4531 28.1719C36.7969 27.5156 36.6797 27.2578 36.6797 26.2734C36.6797 25.0547 37.2656 24.1172 38.3203 23.6484C39.1875 23.2734 40.5703 23.5781 41.3438 24.3516Z" fill="white"/>
<path d="M2.46094 47.4609L1.875 48.0234V77.8125V107.602L2.46094 108.164L3.02344 108.75H10.0312H17.0625L17.2031 109.547C17.5078 111.117 18.9375 113.555 20.3438 114.891C24.8438 119.18 31.4062 119.18 35.9062 114.891C37.3125 113.555 38.7422 111.117 39.0469 109.547L39.1875 108.75H60H80.8125L80.9531 109.547C81.2578 111.117 82.6875 113.555 84.0938 114.891C88.5938 119.18 95.1562 119.18 99.6562 114.891C101.062 113.555 102.492 111.117 102.797 109.547L102.938 108.75H109.969H116.977L117.539 108.164L118.125 107.602V90.5391C118.125 74.4141 118.102 73.4297 117.703 72.7734C116.461 70.7344 100.453 47.625 100.031 47.2734C99.5859 46.8984 98.5078 46.875 84.4688 46.875H69.375V48.75V50.625H75H80.625V69.375V88.125H78.75H76.875V81.2109V74.2734L76.2891 73.7109C75.8203 73.2187 75.4922 73.125 74.4141 73.125H73.125V66.2109V59.2734L72.5391 58.7109L71.9766 58.125H63.75H55.5234L54.9609 58.7109L54.375 59.2734V66.2109V73.125H49.3359C44.2734 73.125 44.2734 73.125 43.7109 73.7109L43.125 74.2734V81.2109V88.125H24.375H5.625V69.375V50.625H7.5H9.375V48.75V46.875H6.21094C3.14062 46.875 3 46.8984 2.46094 47.4609ZM90 63.1641V75.7266L90.5859 76.2891L91.1484 76.875H102.773H114.375V90.9375V105H108.656H102.938L102.797 104.203C102.492 102.633 101.062 100.195 99.6562 98.8594C95.1562 94.5703 88.5938 94.5703 84.0938 98.8594C82.6875 100.195 81.2578 102.633 80.9531 104.203L80.8125 105H60H39.1875L39.0469 104.203C38.7422 102.633 37.3125 100.195 35.9062 98.8594C31.4062 94.5703 24.8438 94.5703 20.3438 98.8594C18.9375 100.195 17.5078 102.633 17.2031 104.203L17.0625 105H11.3438H5.625V98.4375V91.875H44.4141H83.2266L83.7891 91.2891L84.375 90.7266V70.6641V50.625H87.1875H90V63.1641ZM103.992 59.4141C107.297 64.1719 110.766 69.2109 111.703 70.5937L113.461 73.125H103.594H93.75V61.875V50.6016L95.8828 50.6719L98.0391 50.7422L103.992 59.4141ZM61.875 63.75V65.625H63.75H65.625V63.75V61.875H67.5H69.375V67.5V73.125H63.75H58.125V67.5V61.875H60H61.875V63.75ZM50.625 78.75V80.625H52.5H54.375V78.75V76.875H56.25H58.125V82.5V88.125H52.5H46.875V82.5V76.875H48.75H50.625V78.75ZM65.625 78.75V80.625H67.5H69.375V78.75V76.875H71.25H73.125V82.5V88.125H67.5H61.875V82.5V76.875H63.75H65.625V78.75ZM31.2891 100.102C32.7656 100.805 34.1719 102.211 34.9219 103.711C35.3906 104.672 35.5078 105.234 35.5078 106.875C35.4844 108.68 35.4141 109.008 34.7109 110.344C33.8203 111.984 33.0703 112.711 31.3125 113.625C30.3047 114.141 29.8125 114.234 28.125 114.234C26.4844 114.258 25.9219 114.141 24.9609 113.672C18.8672 110.672 19.3828 102.07 25.7812 99.75C27.2578 99.2109 29.7656 99.375 31.2891 100.102ZM95.0391 100.102C96.5156 100.805 97.9219 102.211 98.6719 103.711C99.1406 104.672 99.2578 105.234 99.2578 106.875C99.2344 108.68 99.1641 109.008 98.4609 110.344C97.5703 111.984 96.8203 112.711 95.0625 113.625C94.0547 114.141 93.5625 114.234 91.875 114.234C90.2344 114.258 89.6719 114.141 88.7109 113.672C82.6172 110.672 83.1328 102.07 89.5312 99.75C91.0078 99.2109 93.5156 99.375 95.0391 100.102Z" fill="white"/>
</svg>
