<svg width="26" height="23" viewBox="0 0 26 23" fill="none" xmlns="http://www.w3.org/2000/svg">
<path d="M16.1897 19.0588C16.929 19.0588 17.5574 18.8015 18.075 18.2868C18.5925 17.772 18.8513 17.147 18.8513 16.4118H20.6256V6.70587C20.6256 6.22057 20.4519 5.80513 20.1044 5.45954C19.7569 5.11396 19.3392 4.94116 18.8513 4.94116H6.43074V8.47057H3.7692L1.10766 12V16.4118H2.88202C2.88202 17.147 3.14078 17.772 3.6583 18.2868C4.17583 18.8015 4.80424 19.0588 5.54356 19.0588C6.28288 19.0588 6.9113 18.8015 7.42882 18.2868C7.94634 17.772 8.2051 17.147 8.2051 16.4118H13.5282C13.5282 17.147 13.7869 17.772 14.3045 18.2868C14.822 18.8015 15.4504 19.0588 16.1897 19.0588ZM16.1897 17.2941C15.9383 17.2941 15.7276 17.2095 15.5576 17.0404C15.3876 16.8713 15.3025 16.6618 15.3025 16.4118C15.3025 16.1618 15.3876 15.9522 15.5576 15.7831C15.7276 15.614 15.9383 15.5294 16.1897 15.5294C16.4411 15.5294 16.6518 15.614 16.8218 15.7831C16.9919 15.9522 17.0769 16.1618 17.0769 16.4118C17.0769 16.6618 16.9919 16.8713 16.8218 17.0404C16.6518 17.2095 16.4411 17.2941 16.1897 17.2941ZM18.8513 14.647H18.1415C17.8901 14.3823 17.6018 14.1691 17.2765 14.0073C16.9512 13.8456 16.5889 13.7647 16.1897 13.7647C15.7905 13.7647 15.4282 13.8456 15.1029 14.0073C14.7776 14.1691 14.4893 14.3823 14.2379 14.647H8.2051V6.70587H18.8513V14.647ZM5.54356 17.2941C5.29219 17.2941 5.08149 17.2095 4.91145 17.0404C4.7414 16.8713 4.65638 16.6618 4.65638 16.4118C4.65638 16.1618 4.7414 15.9522 4.91145 15.7831C5.08149 15.614 5.29219 15.5294 5.54356 15.5294C5.79493 15.5294 6.00563 15.614 6.17568 15.7831C6.34572 15.9522 6.43074 16.1618 6.43074 16.4118C6.43074 16.6618 6.34572 16.8713 6.17568 17.0404C6.00563 17.2095 5.79493 17.2941 5.54356 17.2941ZM6.43074 12.8823H2.66023L4.65638 10.2353H6.43074V12.8823Z" fill="#40CFFC"/>
<rect x="14.4153" y="0.529419" width="10.6461" height="10.5882" rx="5.29412" fill="#40CFFC"/>
<line x1="19.8512" y1="2.29413" x2="19.8512" y2="9.35295" stroke="white" stroke-width="2"/>
<line x1="16.1897" y1="5.70587" x2="23.2871" y2="5.70587" stroke="white" stroke-width="2"/>
</svg>
